<svg width="40" height="40" viewBox="0 0 40 40" fill="none" xmlns="http://www.w3.org/2000/svg" stroke="black">
<path d="M27.3333 14.4C27.3333 11.6417 26.3501 8.99647 24.5996 7.0461C22.8493 5.0957 20.4754 4 18 4C15.5246 4 13.1507 5.0957 11.4003 7.0461C9.65 8.99647 8.66667 11.6417 8.66667 14.4C8.66667 26.5334 4 30 4 30H32C32 30 27.3333 26.5334 27.3333 14.4Z" stroke-width="2" stroke-linecap="round" stroke-linejoin="round"/>
<path d="M21.6889 33C21.2982 33.6063 20.7376 34.1096 20.0627 34.4593C19.388 34.8091 18.6231 34.9933 17.8444 34.9933C17.0658 34.9933 16.3009 34.8091 15.6262 34.4593C14.9516 34.1096 14.3907 33.6063 14 33" stroke-width="2" stroke-linecap="round" stroke-linejoin="round"/>
</svg>
