<svg width="24" height="24" viewBox="0 0 24 24" fill="none" xmlns="http://www.w3.org/2000/svg" stroke="black" stroke-width="1.5">
<path d="M2.86155 4.52271C2.42088 4.52271 1.99826 4.69776 1.68667 5.00936C1.37507 5.32097 1.20001 5.74359 1.20001 6.18426V21.1383C1.20001 21.5789 1.37507 22.0016 1.68667 22.3132C1.99826 22.6248 2.42088 22.7998 2.86155 22.7998H21.1385C21.5791 22.7998 22.0018 22.6248 22.3134 22.3132C22.625 22.0016 22.8 21.5789 22.8 21.1383V6.18426C22.8 5.74359 22.625 5.32097 22.3134 5.00936C22.0018 4.69776 21.5791 4.52271 21.1385 4.52271H17.8154" stroke-linecap="round" stroke-linejoin="round"/>
<path d="M1.20001 11.1692H22.8" stroke-linecap="round" stroke-linejoin="round"/>
<path d="M6.18518 1.19995V7.84618" stroke-linecap="round" stroke-linejoin="round"/>
<path d="M17.816 1.19995V7.84618" stroke-linecap="round" stroke-linejoin="round"/>
<path d="M6.18518 4.52271H14.4929" stroke-linecap="round" stroke-linejoin="round"/>
</svg>
