<svg width="40" height="40" viewBox="0 0 40 40" fill="none" xmlns="http://www.w3.org/2000/svg" stroke="black">
<path d="M13.4712 20.8423C14.3334 20.8423 15.0323 20.1432 15.0323 19.2808C15.0323 18.4184 14.3334 17.7193 13.4712 17.7193C12.6091 17.7193 11.9102 18.4184 11.9102 19.2808C11.9102 20.1432 12.6091 20.8423 13.4712 20.8423Z" stroke-linecap="round" stroke-linejoin="round"/>
<path d="M19.7154 20.8423C20.5775 20.8423 21.2765 20.1432 21.2765 19.2808C21.2765 18.4184 20.5775 17.7193 19.7154 17.7193C18.8532 17.7193 18.1543 18.4184 18.1543 19.2808C18.1543 20.1432 18.8532 20.8423 19.7154 20.8423Z" stroke-linecap="round" stroke-linejoin="round"/>
<path d="M25.9598 20.8423C26.8219 20.8423 27.5208 20.1432 27.5208 19.2808C27.5208 18.4184 26.8219 17.7193 25.9598 17.7193C25.0976 17.7193 24.3987 18.4184 24.3987 19.2808C24.3987 20.1432 25.0976 20.8423 25.9598 20.8423Z" stroke-linecap="round" stroke-linejoin="round"/>
<path d="M20.4957 4C17.8736 4.00082 15.3009 4.71304 13.0515 6.06081C10.8021 7.40858 8.96024 9.34142 7.72217 11.6535C6.4841 13.9655 5.89615 16.5702 6.02094 19.1901C6.14573 21.8099 6.9786 24.3469 8.43082 26.5307L6 32.9999L14.1399 31.5276C16.1 32.4857 18.2509 32.9889 20.4325 32.9997C22.614 33.0106 24.7699 32.5287 26.7393 31.59C28.7088 30.6514 30.4411 29.2802 31.807 27.5787C33.1729 25.8771 34.1373 23.8892 34.6282 21.7629C35.1191 19.6367 35.1239 17.427 34.6423 15.2987C34.1606 13.1703 33.205 11.1781 31.8465 9.47065C30.488 7.76317 28.7617 6.38444 26.7964 5.43722C24.831 4.48999 22.6773 3.99871 20.4957 4V4Z" stroke-width="2" stroke-linecap="round" stroke-linejoin="round"/>
</svg>
