<svg width="20" height="20" viewBox="0 0 20 20" fill="none" xmlns="http://www.w3.org/2000/svg" stroke="black">
<path d="M8.15381 13.9229H11.8461" stroke-linecap="round" stroke-linejoin="round"/>
<path d="M3.23077 3.46159C2.90435 3.46159 2.5913 3.59126 2.36048 3.82208C2.12967 4.05289 2 4.36594 2 4.69236V15.7693C2 16.0957 2.12967 16.4088 2.36048 16.6396C2.5913 16.8704 2.90435 17.0001 3.23077 17.0001H16.7692C17.0957 17.0001 17.4087 16.8704 17.6395 16.6396C17.8703 16.4088 18 16.0957 18 15.7693V4.69236C18 4.36594 17.8703 4.05289 17.6395 3.82208C17.4087 3.59126 17.0957 3.46159 16.7692 3.46159H14.3077" stroke-linecap="round" stroke-linejoin="round"/>
<path d="M5.69238 1V5.92308" stroke-linecap="round" stroke-linejoin="round"/>
<path d="M14.3076 1V5.92308" stroke-linecap="round" stroke-linejoin="round"/>
<path d="M5.69238 3.46159H11.8462" stroke-linecap="round" stroke-linejoin="round"/>
<path d="M8.76929 8.38454H10.0001V13.923" stroke-linecap="round" stroke-linejoin="round"/>
</svg>
