<svg width="20" height="20" viewBox="0 0 20 20" fill="none" xmlns="http://www.w3.org/2000/svg" stroke="black">
<path d="M15.883 3.2549H13.8085V2.47059C13.8085 2.34578 13.7581 2.22608 13.6683 2.13783C13.5785 2.04958 13.4568 2 13.3298 2C13.2028 2 13.0811 2.04958 12.9913 2.13783C12.9015 2.22608 12.8511 2.34578 12.8511 2.47059V3.2549H6.14894V2.47059C6.14894 2.34578 6.0985 2.22608 6.00872 2.13783C5.91894 2.04958 5.79718 2 5.67021 2C5.54325 2 5.42148 2.04958 5.3317 2.13783C5.24193 2.22608 5.19149 2.34578 5.19149 2.47059V3.2549H3.11702C2.82077 3.2549 2.53665 3.37059 2.32717 3.57651C2.11769 3.78243 2 4.06172 2 4.35294V16.902C2 17.1932 2.11769 17.4725 2.32717 17.6784C2.53665 17.8843 2.82077 18 3.11702 18H15.883C16.1792 18 16.4633 17.8843 16.6728 17.6784C16.8823 17.4725 17 17.1932 17 16.902V4.35294C17 4.06172 16.8823 3.78243 16.6728 3.57651C16.4633 3.37059 16.1792 3.2549 15.883 3.2549ZM3.11702 4.19608H5.19149V4.98039C5.19149 5.1052 5.24193 5.2249 5.3317 5.31315C5.42148 5.4014 5.54325 5.45098 5.67021 5.45098C5.79718 5.45098 5.91894 5.4014 6.00872 5.31315C6.0985 5.2249 6.14894 5.1052 6.14894 4.98039V4.19608H12.8511V4.98039C12.8511 5.1052 12.9015 5.2249 12.9913 5.31315C13.0811 5.4014 13.2028 5.45098 13.3298 5.45098C13.4568 5.45098 13.5785 5.4014 13.6683 5.31315C13.7581 5.2249 13.8085 5.1052 13.8085 4.98039V4.19608H15.883C15.9253 4.19608 15.9659 4.2126 15.9958 4.24202C16.0257 4.27144 16.0426 4.31134 16.0426 4.35294V7.01961H2.95745V4.35294C2.95745 4.31134 2.97426 4.27144 3.00418 4.24202C3.03411 4.2126 3.0747 4.19608 3.11702 4.19608ZM15.883 17.0588H3.11702C3.0747 17.0588 3.03411 17.0423 3.00418 17.0129C2.97426 16.9835 2.95745 16.9436 2.95745 16.902V7.96078H16.0426V16.902C16.0426 16.9436 16.0257 16.9835 15.9958 17.0129C15.9659 17.0423 15.9253 17.0588 15.883 17.0588ZM8.06383 10V15.0196C8.06383 15.1444 8.01339 15.2641 7.92361 15.3524C7.83384 15.4406 7.71207 15.4902 7.58511 15.4902C7.45814 15.4902 7.33638 15.4406 7.2466 15.3524C7.15682 15.2641 7.10638 15.1444 7.10638 15.0196V10.7616L6.52234 11.0486C6.46607 11.0762 6.40483 11.0927 6.3421 11.097C6.27937 11.1013 6.21639 11.0935 6.15675 11.0739C6.0971 11.0543 6.04197 11.0234 5.9945 10.9828C5.94702 10.9423 5.90813 10.893 5.88005 10.8376C5.85197 10.7823 5.83525 10.7221 5.83084 10.6605C5.82643 10.5988 5.83441 10.5369 5.85434 10.4783C5.87427 10.4196 5.90576 10.3654 5.94699 10.3188C5.98823 10.2721 6.03841 10.2339 6.09468 10.2063L7.37128 9.57882C7.44427 9.543 7.52537 9.52611 7.60688 9.52976C7.68838 9.53341 7.76759 9.55747 7.83697 9.59967C7.90635 9.64186 7.96362 9.70079 8.00332 9.77085C8.04303 9.84092 8.06385 9.9198 8.06383 10ZM12.8168 12.2941L11.0957 14.549H12.6915C12.8185 14.549 12.9402 14.5986 13.03 14.6869C13.1198 14.7751 13.1702 14.8948 13.1702 15.0196C13.1702 15.1444 13.1198 15.2641 13.03 15.3524C12.9402 15.4406 12.8185 15.4902 12.6915 15.4902H10.1383C10.0494 15.4902 9.96224 15.4659 9.88662 15.4199C9.81099 15.374 9.74987 15.3082 9.71011 15.2301C9.67035 15.1519 9.65352 15.0644 9.66151 14.9773C9.66949 14.8903 9.70198 14.8072 9.75532 14.7373L12.0532 11.7255C12.1194 11.64 12.167 11.5421 12.1931 11.4378C12.2192 11.3335 12.2232 11.2251 12.2049 11.1192C12.1866 11.0133 12.1464 10.9122 12.0867 10.8223C12.0271 10.7323 11.9492 10.6553 11.8581 10.5961C11.7669 10.5369 11.6644 10.4967 11.5568 10.4781C11.4492 10.4594 11.3388 10.4627 11.2326 10.4877C11.1263 10.5127 11.0264 10.5589 10.939 10.6234C10.8517 10.6879 10.7787 10.7694 10.7247 10.8627C10.6962 10.9213 10.6556 10.9733 10.6056 11.0157C10.5556 11.0581 10.4972 11.0898 10.4342 11.1089C10.3711 11.128 10.3046 11.1341 10.239 11.1268C10.1735 11.1195 10.1101 11.0989 10.053 11.0664C9.99588 11.0338 9.94624 10.99 9.90717 10.9377C9.86811 10.8854 9.84048 10.8257 9.82601 10.7624C9.81154 10.6991 9.81055 10.6335 9.8231 10.5698C9.83565 10.5061 9.86147 10.4456 9.89894 10.3922C10.0192 10.1891 10.1805 10.0124 10.3727 9.87277C10.565 9.73316 10.7842 9.63362 11.017 9.58025C11.2498 9.52688 11.4912 9.52081 11.7265 9.56241C11.9617 9.60401 12.1859 9.69241 12.3851 9.82217C12.5844 9.95194 12.7546 10.1204 12.8853 10.3171C13.016 10.5138 13.1045 10.7347 13.1453 10.9662C13.1861 11.1977 13.1783 11.435 13.1225 11.6635C13.0667 11.892 12.964 12.1068 12.8207 12.2949L12.8168 12.2941Z" fill="none"/>
</svg>
