<svg width="20" height="20" viewBox="0 0 20 20" fill="none" xmlns="http://www.w3.org/2000/svg" stroke="black">
<path d="M10 18C14.4183 18 18 14.4183 18 10C18 5.58172 14.4183 2 10 2C5.58172 2 2 5.58172 2 10C2 14.4183 5.58172 18 10 18Z"  stroke-linecap="round" stroke-linejoin="round"/>
<path d="M8.15381 8.15385C8.15381 7.78871 8.26208 7.43178 8.46494 7.12818C8.6678 6.82458 8.95613 6.58796 9.29347 6.44822C9.63081 6.30849 10.002 6.27193 10.3601 6.34317C10.7182 6.4144 11.0472 6.59023 11.3054 6.84842C11.5636 7.10661 11.7394 7.43556 11.8106 7.79368C11.8819 8.1518 11.8453 8.523 11.7056 8.86034C11.5659 9.19768 11.3292 9.48601 11.0256 9.68887C10.722 9.89173 10.3651 10 9.99996 10V11.2308" stroke-linecap="round" stroke-linejoin="round"/>
<path d="M10.0001 14.3078C9.83014 14.3078 9.69238 14.17 9.69238 14.0001C9.69238 13.8302 9.83014 13.6924 10.0001 13.6924" stroke-linecap="round" stroke-linejoin="round"/>
<path d="M10 14.3078C10.1699 14.3078 10.3077 14.17 10.3077 14.0001C10.3077 13.8302 10.1699 13.6924 10 13.6924" stroke-linecap="round" stroke-linejoin="round"/>
</svg>
