<svg width="40" height="40" viewBox="0 0 40 40" fill="none" xmlns="http://www.w3.org/2000/svg">
<path d="M26.5 3.38481H29.8C30.3835 3.38481 30.9431 3.63604 31.3556 4.08324C31.7682 4.53044 32 5.13698 32 5.76941V29.6154C32 30.2478 31.7682 30.8544 31.3556 31.3016C30.9431 31.7488 30.3835 32 29.8 32H12.2C11.6165 32 11.0569 31.7488 10.6444 31.3016C10.2318 30.8544 10 30.2478 10 29.6154V5.76941C10 5.13698 10.2318 4.53044 10.6444 4.08324C11.0569 3.63604 11.6165 3.38481 12.2 3.38481H15.5M26.5 3.38481C26.5 2.06783 25.5148 1 24.2998 1H17.6998C16.4847 1 15.5 2.06783 15.5 3.38481M26.5 3.38481L26.4998 4.5769C26.4998 5.89388 25.5148 6.9615 24.2998 6.9615H17.6998C16.4847 6.9615 15.4998 5.89388 15.4998 4.5769L15.5 3.38481M15.4998 12.9221H26.4998M15.4998 18.8841H26.4998M15.4998 24.8462H26.4998" stroke="#000" stroke-width="2" stroke-linecap="round" stroke-linejoin="round"/>
</svg>
