<svg width="38" height="38" viewBox="0 0 38 38" fill="none" xmlns="http://www.w3.org/2000/svg">
<g clip-path="url(#clip0_5939_42012)">
<path d="M19.0001 21.7144C22.7477 21.7144 25.7858 18.6763 25.7858 14.9287C25.7858 11.181 22.7477 8.14294 19.0001 8.14294C15.2524 8.14294 12.2144 11.181 12.2144 14.9287C12.2144 18.6763 15.2524 21.7144 19.0001 21.7144Z" stroke="#000001" stroke-linecap="round" stroke-linejoin="round"/>
<path d="M7.41003 32.3C8.62126 30.3118 10.3236 28.6687 12.3533 27.5285C14.3831 26.3883 16.672 25.7894 19 25.7894C21.3281 25.7894 23.617 26.3883 25.6468 27.5285C27.6765 28.6687 29.3788 30.3118 30.59 32.3" stroke="#000001" stroke-linecap="round" stroke-linejoin="round"/>
<path d="M19 36.6429C28.7439 36.6429 36.6429 28.7439 36.6429 19C36.6429 9.25615 28.7439 1.35718 19 1.35718C9.25615 1.35718 1.35718 9.25615 1.35718 19C1.35718 28.7439 9.25615 36.6429 19 36.6429Z" stroke="#000001" stroke-linecap="round" stroke-linejoin="round"/>
</g>
<defs>
<clipPath id="clip0_5939_42012">
<rect width="38" height="38" fill="white"/>
</clipPath>
</defs>
</svg>
