<svg width="25" height="24" viewBox="0 0 25 24" fill="none" xmlns="http://www.w3.org/2000/svg" stroke="black">
<g clip-path="url(#clip0_7113_5926)">
<path d="M12.5781 22.6001C18.5428 22.6001 23.3782 17.7648 23.3782 11.8C23.3782 5.83535 18.5428 1 12.5781 1C6.61342 1 1.77808 5.83535 1.77808 11.8C1.77808 17.7648 6.61342 22.6001 12.5781 22.6001Z" stroke-width="1.5" stroke-linecap="round" stroke-linejoin="round"/>
<path d="M10.0857 9.30769C10.0857 8.81476 10.2319 8.33289 10.5057 7.92303C10.7796 7.51317 11.1688 7.19372 11.6242 7.00509C12.0797 6.81645 12.5808 6.76709 13.0642 6.86326C13.5477 6.95943 13.9918 7.1968 14.3403 7.54535C14.6889 7.89391 14.9263 8.338 15.0224 8.82146C15.1186 9.30492 15.0693 9.80605 14.8806 10.2615C14.692 10.7169 14.3725 11.1061 13.9627 11.38C13.5528 11.6538 13.0709 11.8 12.578 11.8V13.4616" stroke-width="1.5" stroke-linecap="round" stroke-linejoin="round"/>
<path d="M12.5782 17.6155C12.3488 17.6155 12.1628 17.4295 12.1628 17.2001C12.1628 16.9707 12.3488 16.7847 12.5782 16.7847" stroke-width="1.5" stroke-linecap="round" stroke-linejoin="round"/>
<path d="M12.5781 17.6155C12.8075 17.6155 12.9935 17.4295 12.9935 17.2001C12.9935 16.9707 12.8075 16.7847 12.5781 16.7847" stroke-width="1.5" stroke-linecap="round" stroke-linejoin="round"/>
</g>
<defs>
<clipPath id="clip0_7113_5926">
<rect width="24" height="24" fill="none" transform="translate(0.778076)"/>
</clipPath>
</defs>
</svg>
