<svg width="24" height="24" viewBox="0 0 24 24" fill="none" stroke-width="1.5" xmlns="http://www.w3.org/2000/svg" stroke="black">
<path d="M12 21.5999C17.302 21.5999 21.6 17.3018 21.6 11.9999C21.6 6.69797 17.302 2.3999 12 2.3999C6.69809 2.3999 2.40002 6.69797 2.40002 11.9999C2.40002 17.3018 6.69809 21.5999 12 21.5999Z" stroke-linecap="round" stroke-linejoin="round"/>
<path d="M9.78467 9.78448C9.78467 9.34632 9.9146 8.91799 10.158 8.55368C10.4015 8.18936 10.7475 7.90541 11.1523 7.73773C11.5571 7.57005 12.0025 7.52618 12.4323 7.61166C12.862 7.69714 13.2567 7.90814 13.5666 8.21796C13.8764 8.52779 14.0874 8.92254 14.1729 9.35228C14.2584 9.78202 14.2145 10.2275 14.0468 10.6323C13.8791 11.0371 13.5952 11.3831 13.2309 11.6265C12.8665 11.8699 12.4382 11.9999 12.0001 11.9999V13.4768" stroke-linecap="round" stroke-linejoin="round"/>
<path d="M12 17.1691C11.796 17.1691 11.6307 17.0038 11.6307 16.7999C11.6307 16.596 11.796 16.4307 12 16.4307" stroke-linecap="round" stroke-linejoin="round"/>
<path d="M12 17.1691C12.2039 17.1691 12.3692 17.0038 12.3692 16.7999C12.3692 16.596 12.2039 16.4307 12 16.4307" stroke-linecap="round" stroke-linejoin="round"/>
</svg>
