<?xml version="1.0" encoding="utf-8"?>
<svg xmlns="http://www.w3.org/2000/svg" xmlns:xlink="http://www.w3.org/1999/xlink" style="margin: auto; background: none; display: block; shape-rendering: auto;" width="200px" height="200px" viewBox="0 0 100 100" preserveAspectRatio="xMidYMid">
<g transform="rotate(0 50 50)">
  <rect x="49.5" y="32" rx="0.5" ry="0.72" width="1" height="8" fill="#ffa500">
    <animate attributeName="opacity" values="1;0" keyTimes="0;1" dur="0.78125s" begin="-0.6944444444444444s" repeatCount="indefinite"></animate>
  </rect>
</g><g transform="rotate(40 50 50)">
  <rect x="49.5" y="32" rx="0.5" ry="0.72" width="1" height="8" fill="#ffa500">
    <animate attributeName="opacity" values="1;0" keyTimes="0;1" dur="0.78125s" begin="-0.607638888888889s" repeatCount="indefinite"></animate>
  </rect>
</g><g transform="rotate(80 50 50)">
  <rect x="49.5" y="32" rx="0.5" ry="0.72" width="1" height="8" fill="#ffa500">
    <animate attributeName="opacity" values="1;0" keyTimes="0;1" dur="0.78125s" begin="-0.5208333333333334s" repeatCount="indefinite"></animate>
  </rect>
</g><g transform="rotate(120 50 50)">
  <rect x="49.5" y="32" rx="0.5" ry="0.72" width="1" height="8" fill="#ffa500">
    <animate attributeName="opacity" values="1;0" keyTimes="0;1" dur="0.78125s" begin="-0.4340277777777778s" repeatCount="indefinite"></animate>
  </rect>
</g><g transform="rotate(160 50 50)">
  <rect x="49.5" y="32" rx="0.5" ry="0.72" width="1" height="8" fill="#ffa500">
    <animate attributeName="opacity" values="1;0" keyTimes="0;1" dur="0.78125s" begin="-0.3472222222222222s" repeatCount="indefinite"></animate>
  </rect>
</g><g transform="rotate(200 50 50)">
  <rect x="49.5" y="32" rx="0.5" ry="0.72" width="1" height="8" fill="#ffa500">
    <animate attributeName="opacity" values="1;0" keyTimes="0;1" dur="0.78125s" begin="-0.2604166666666667s" repeatCount="indefinite"></animate>
  </rect>
</g><g transform="rotate(240 50 50)">
  <rect x="49.5" y="32" rx="0.5" ry="0.72" width="1" height="8" fill="#ffa500">
    <animate attributeName="opacity" values="1;0" keyTimes="0;1" dur="0.78125s" begin="-0.1736111111111111s" repeatCount="indefinite"></animate>
  </rect>
</g><g transform="rotate(280 50 50)">
  <rect x="49.5" y="32" rx="0.5" ry="0.72" width="1" height="8" fill="#ffa500">
    <animate attributeName="opacity" values="1;0" keyTimes="0;1" dur="0.78125s" begin="-0.08680555555555555s" repeatCount="indefinite"></animate>
  </rect>
</g><g transform="rotate(320 50 50)">
  <rect x="49.5" y="32" rx="0.5" ry="0.72" width="1" height="8" fill="#ffa500">
    <animate attributeName="opacity" values="1;0" keyTimes="0;1" dur="0.78125s" begin="0s" repeatCount="indefinite"></animate>
  </rect>
</g>
<!-- [ldio] generated by https://loading.io/ --></svg>