<svg xmlns="http://www.w3.org/2000/svg" style="margin:auto;background:0 0;display:block;shape-rendering:auto;animation-play-state:running;animation-delay:0s" width="197" height="197" viewBox="0 0 100 100" preserveAspectRatio="xMidYMid"><rect x="48.5" y="26.5" rx="1.5" ry="1.76" width="3" height="11" fill="#1d0e0b" style="animation-play-state:running;animation-delay:0s"><animate attributeName="opacity" values="1;0" keyTimes="0;1" dur="1.282051282051282s" begin="-1.1396011396011396s" repeatCount="indefinite"/></rect><rect x="48.5" y="26.5" rx="1.5" ry="1.76" width="3" height="11" fill="#1d0e0b" style="animation-play-state:running;animation-delay:0s" transform="rotate(40 50 50)"><animate attributeName="opacity" values="1;0" keyTimes="0;1" dur="1.282051282051282s" begin="-0.9971509971509971s" repeatCount="indefinite"/></rect><rect x="48.5" y="26.5" rx="1.5" ry="1.76" width="3" height="11" fill="#1d0e0b" style="animation-play-state:running;animation-delay:0s" transform="rotate(80 50 50)"><animate attributeName="opacity" values="1;0" keyTimes="0;1" dur="1.282051282051282s" begin="-0.8547008547008547s" repeatCount="indefinite"/></rect><rect x="48.5" y="26.5" rx="1.5" ry="1.76" width="3" height="11" fill="#1d0e0b" style="animation-play-state:running;animation-delay:0s" transform="rotate(120 50 50)"><animate attributeName="opacity" values="1;0" keyTimes="0;1" dur="1.282051282051282s" begin="-0.7122507122507122s" repeatCount="indefinite"/></rect><rect x="48.5" y="26.5" rx="1.5" ry="1.76" width="3" height="11" fill="#1d0e0b" style="animation-play-state:running;animation-delay:0s" transform="rotate(160 50 50)"><animate attributeName="opacity" values="1;0" keyTimes="0;1" dur="1.282051282051282s" begin="-0.5698005698005698s" repeatCount="indefinite"/></rect><rect x="48.5" y="26.5" rx="1.5" ry="1.76" width="3" height="11" fill="#1d0e0b" style="animation-play-state:running;animation-delay:0s" transform="rotate(200 50 50)"><animate attributeName="opacity" values="1;0" keyTimes="0;1" dur="1.282051282051282s" begin="-0.42735042735042733s" repeatCount="indefinite"/></rect><rect x="48.5" y="26.5" rx="1.5" ry="1.76" width="3" height="11" fill="#1d0e0b" style="animation-play-state:running;animation-delay:0s" transform="rotate(240 50 50)"><animate attributeName="opacity" values="1;0" keyTimes="0;1" dur="1.282051282051282s" begin="-0.2849002849002849s" repeatCount="indefinite"/></rect><rect x="48.5" y="26.5" rx="1.5" ry="1.76" width="3" height="11" fill="#1d0e0b" style="animation-play-state:running;animation-delay:0s" transform="rotate(280 50 50)"><animate attributeName="opacity" values="1;0" keyTimes="0;1" dur="1.282051282051282s" begin="-0.14245014245014245s" repeatCount="indefinite"/></rect><rect x="48.5" y="26.5" rx="1.5" ry="1.76" width="3" height="11" fill="#1d0e0b" style="animation-play-state:running;animation-delay:0s" transform="rotate(320 50 50)"><animate attributeName="opacity" values="1;0" keyTimes="0;1" dur="1.282051282051282s" begin="0s" repeatCount="indefinite"/></rect></svg>